<svg width="96" height="100" viewBox="0 0 96 100" fill="none" xmlns="http://www.w3.org/2000/svg">
<path d="M5.19933 79.5098C5.19933 80.4367 4.21915 81.188 3.01002 81.188H2.1893C0.980182 81.188 0 80.4367 0 79.5098V50.6447C0 49.7178 0.980182 48.9665 2.1893 48.9665H3.01002C4.21915 48.9665 5.19933 49.7178 5.19933 50.6447V79.5098Z" fill="#BCBCBC"/>
<path d="M95.8704 79.5098C95.8704 80.4368 94.8902 81.188 93.6811 81.188H92.8603C91.6512 81.188 90.6711 80.4368 90.6711 79.5098V50.6447C90.6711 49.7178 91.6512 48.9666 92.8603 48.9666H93.6811C94.8902 48.9666 95.8704 49.7178 95.8704 50.6447V79.5098Z" fill="#BCBCBC"/>
<path d="M16.6732 24.5661H13.5014L14.2716 2.75049H15.7633L16.6732 24.5661Z" fill="#EFEFEF"/>
<path d="M20.7509 36.7324C20.7509 37.6593 19.9057 38.4107 18.863 38.4107H11.3115C10.2689 38.4107 9.42353 37.6593 9.42353 36.7324V21.9631C9.42353 21.0362 10.2689 20.2848 11.3115 20.2848H18.863C19.9056 20.2848 20.7509 21.0362 20.7509 21.9631V36.7324Z" fill="#EFEFEF"/>
<path d="M17.8376 2.75048C17.8376 4.2695 16.6063 5.50094 15.0873 5.50094C13.5683 5.50094 12.3368 4.2695 12.3368 2.75048C12.3368 1.23147 13.5682 0 15.0873 0C16.6063 0 17.8376 1.23147 17.8376 2.75048Z" fill="#BCBCBC"/>
<path d="M82.3688 24.5661H79.1972L79.9673 2.75049H81.459L82.3688 24.5661Z" fill="#EFEFEF"/>
<path d="M86.4467 36.7324C86.4467 37.6593 85.6015 38.4107 84.5587 38.4107H77.0074C75.9647 38.4107 75.1195 37.6593 75.1195 36.7324V21.9631C75.1195 21.0362 75.9647 20.2848 77.0074 20.2848H84.5586C85.6014 20.2848 86.4466 21.0362 86.4466 21.9631V36.7324H86.4467Z" fill="#EFEFEF"/>
<path d="M83.5334 2.75048C83.5334 4.2695 82.3021 5.50094 80.7829 5.50094C79.2639 5.50094 78.0326 4.2695 78.0326 2.75048C78.0326 1.23147 79.2639 0 80.7829 0C82.302 0 83.5334 1.23147 83.5334 2.75048Z" fill="#BCBCBC"/>
<path d="M92.9398 48.677C92.1494 32.9095 72.3042 20.285 47.9351 20.285C23.566 20.285 3.72086 32.9095 2.93059 48.677C2.91376 48.8333 2.90305 48.9907 2.90305 49.1502V94.35C2.90305 97.4705 6.1743 100 10.2095 100H47.9351H85.6607C89.6959 100 92.9672 97.4705 92.9672 94.35V49.1502C92.9672 48.9907 92.9565 48.8333 92.9398 48.677Z" fill="#EFEFEF"/>
<path d="M85.6609 96.2073H47.9351H10.2095C6.1743 96.2073 2.90305 94.5876 2.90305 92.5893V96.3818C2.90305 98.3801 6.1743 100 10.2095 100H47.9351H85.6607C89.6959 100 92.9672 98.3801 92.9672 96.3818V92.5893C92.9672 94.5876 89.6959 96.2073 85.6609 96.2073Z" fill="#BCBCBC"/>
<path d="M81.6506 82.7985V58.4876C81.6506 58.3547 81.6427 58.2233 81.6301 58.0932C81.0383 44.9491 66.1803 34.4253 47.9353 34.4253C29.6903 34.4253 14.832 44.9493 14.2404 58.0932C14.2279 58.2234 14.2199 58.3547 14.2199 58.4876V82.7985H81.6506Z" fill="#BCBCBC"/>
<path d="M81.6506 82.7985V60.0015C81.6506 59.8768 81.6427 59.7536 81.6301 59.6316C81.0383 47.3061 66.1803 37.4376 47.9353 37.4376C29.6903 37.4376 14.832 47.3061 14.2404 59.6316C14.2279 59.7536 14.2199 59.8768 14.2199 60.0015V82.7985H81.6506Z" fill="#3D4756"/>
<path d="M81.63 59.6316C81.0382 47.3061 66.1803 37.4376 47.9351 37.4376C29.69 37.4376 14.832 47.3061 14.2403 59.6316C14.2277 59.7536 14.2198 59.8768 14.2198 60.0015V65.0357C14.2198 64.9111 14.2277 64.7879 14.2403 64.666C14.832 52.3403 29.69 42.4718 47.9351 42.4718C66.1803 42.4718 81.0383 52.3403 81.63 64.666C81.6425 64.7879 81.6505 64.9111 81.6505 65.0357V60.0015C81.6506 59.8768 81.6425 59.7536 81.63 59.6316Z" fill="#2D353F"/>
<path d="M60.9161 55.527C56.7205 49.7929 47.9351 56.0943 47.9351 56.0943C47.9351 56.0943 39.1497 49.7929 34.9542 55.527C27.1174 66.237 47.9351 74.8264 47.9351 74.8264C47.9351 74.8264 68.7528 66.237 60.9161 55.527Z" fill="#FFC0CB"/>
</svg>
